<?xml version="1.0" encoding="iso-8859-1"?>
<svg version="1.1" id="Capa_1" xmlns="http://www.w3.org/2000/svg" xmlns:xlink="http://www.w3.org/1999/xlink" x="0px" y="0px"
	 viewBox="0 0 512 512" style="enable-background:new 0 0 512 512;" xml:space="preserve">
<g>
	<path d="M437.02,74.98C388.668,26.629,324.38,0,256,0S123.332,26.629,74.98,74.98C26.629,123.333,0,187.62,0,256
		s26.629,132.667,74.98,181.02C123.332,485.371,187.62,512,256,512s132.668-26.629,181.02-74.98
		C485.371,388.667,512,324.38,512,256S485.371,123.333,437.02,74.98z M256,497C123.112,497,15,388.888,15,256S123.112,15,256,15
		s241,108.112,241,241S388.888,497,256,497z"/>
</g>
<g>
	<path d="M256,233.5c-12.406,0-22.5,10.093-22.5,22.5s10.094,22.5,22.5,22.5s22.5-10.093,22.5-22.5
		C278.5,243.593,268.406,233.5,256,233.5z M256,263.5c-4.136,0-7.5-3.364-7.5-7.5s3.364-7.5,7.5-7.5s7.5,3.364,7.5,7.5
		S260.136,263.5,256,263.5z"/>
</g>
<g>
	<path d="M446.9,295.99c-3.047-34.427-22.709-65.283-52.597-82.539c-12.68-7.32-26.71-11.923-41.135-13.552
		C358.97,186.594,362,172.14,362,157.5c0-34.512-16.891-66.968-45.183-86.82c-3.17-2.225-7.514-1.67-10.022,1.282
		c-2.508,2.951-2.356,7.327,0.35,10.098C320.271,95.5,327.5,113.235,327.5,132c0,13.652-3.851,26.419-10.517,37.282
		c-17.77-12.491-39.126-19.31-60.983-19.31s-43.212,6.817-60.983,19.309C188.351,158.419,184.5,145.652,184.5,132
		c0-18.765,7.229-36.5,20.355-49.94c2.706-2.771,2.857-7.146,0.35-10.098c-2.507-2.952-6.852-3.507-10.022-1.282
		C166.891,90.532,150,122.988,150,157.5c0,14.64,3.03,29.094,8.831,42.4c-14.423,1.628-28.456,6.231-41.135,13.551
		c-29.888,17.256-49.55,48.111-52.597,82.539c-0.342,3.858,2.311,7.342,6.121,8.039c3.815,0.7,7.523-1.623,8.57-5.351
		c5.077-18.088,16.822-33.217,33.072-42.599c11.73-6.773,24.73-9.858,37.545-9.529c-1.932,21.634,2.841,43.536,13.769,62.463
		c10.928,18.928,27.508,34.012,47.209,43.156c-6.122,11.263-15.294,20.979-27.024,27.751c-16.251,9.383-35.227,11.989-53.428,7.342
		c-3.759-0.957-7.618,1.1-8.92,4.747c-1.301,3.648,0.39,7.687,3.901,9.321c31.339,14.574,67.891,12.973,97.779-4.282
		c12.679-7.32,23.682-17.171,32.304-28.848c8.622,11.677,19.626,21.528,32.304,28.848c16.325,9.425,34.634,14.18,53,14.179
		c15.259,0,30.558-3.283,44.779-9.897c3.512-1.634,5.202-5.672,3.901-9.321c-1.302-3.647-5.166-5.703-8.92-4.747
		c-18.2,4.647-37.177,2.041-53.428-7.342c-11.823-6.826-20.955-16.545-27.029-27.75c19.704-9.144,36.287-24.229,47.215-43.158
		c10.929-18.929,15.703-40.832,13.77-62.469c12.74-0.341,25.722,2.708,37.545,9.534c16.25,9.382,27.995,24.51,33.072,42.599
		c1.048,3.729,4.763,6.054,8.57,5.351C444.59,303.332,447.242,299.848,446.9,295.99z M256,164.973
		c18.55,0,36.684,5.711,51.833,16.2C294.795,194.909,276.388,203.5,256,203.5s-38.796-8.592-51.833-22.328
		C219.316,170.683,237.448,164.973,256,164.973z M334.832,301.514c-9.275,16.064-23.288,28.914-39.946,36.788
		c-5.377-18.158-3.613-38.396,6.58-56.052c10.194-17.657,26.839-29.304,45.254-33.726
		C348.229,266.889,344.108,285.447,334.832,301.514z M406.637,243.089c-16.712-9.648-35.725-13.356-54.539-10.84
		c-0.06,0.009-0.119,0.011-0.178,0.021c-0.017,0.003-0.033,0.008-0.05,0.011c-3.637,0.497-7.268,1.201-10.871,2.167
		c-22.317,5.98-40.971,20.293-52.523,40.303c-23.848,41.307-9.645,94.313,31.661,118.161c0.828,0.478,1.662,0.942,2.501,1.391
		c-9.322-1.948-18.388-5.367-26.834-10.243c-13.85-7.996-25.366-19.503-33.306-33.277c-1.339-2.323-3.816-3.754-6.498-3.754
		c-2.682,0-5.159,1.432-6.498,3.754c-7.939,13.774-19.456,25.281-33.306,33.277c-8.447,4.877-17.511,8.296-26.835,10.244
		c0.839-0.449,1.674-0.913,2.502-1.391c16.887-9.75,29.407-24.534,36.519-41.528c0.068-0.151,0.15-0.292,0.209-0.449
		c0.045-0.122,0.078-0.246,0.116-0.369c7.682-18.892,8.722-40.435,1.661-60.811c-1.357-3.913-5.631-5.986-9.543-4.63
		c-3.914,1.356-5.987,5.629-4.631,9.542c5.027,14.505,5.081,29.725,0.943,43.647c-16.668-7.874-30.689-20.726-39.969-36.8
		c-9.28-16.073-13.4-34.643-11.884-53.014c14.125,3.378,27.279,11.034,37.327,22.64c2.71,3.131,7.446,3.471,10.579,0.761
		c3.132-2.711,3.473-7.448,0.761-10.58c-27.067-31.265-72.737-38.931-108.588-18.232c-0.828,0.478-1.648,0.969-2.456,1.472
		c6.348-7.1,13.843-13.243,22.289-18.119c13.832-7.985,29.531-12.205,45.408-12.205c0.021,0,0.028,0.007,0.068,0
		c2.68,0,5.155-1.429,6.495-3.75c1.341-2.322,1.34-5.184-0.003-7.505C169.207,189.22,165,173.492,165,157.5
		c0-9.752,1.571-19.314,4.547-28.362c-0.031,0.952-0.047,1.906-0.047,2.862c0,19.507,6.494,37.525,17.429,52.011
		c0.17,0.269,0.352,0.533,0.56,0.785c0.078,0.094,0.164,0.175,0.245,0.265C203.576,205.396,228.285,218.5,256,218.5
		c47.696,0,86.5-38.804,86.5-86.5c0-0.956-0.016-1.911-0.047-2.862c2.976,9.048,4.547,18.61,4.547,28.362
		c0,15.992-4.207,31.72-12.165,45.481c-1.343,2.321-1.344,5.183-0.003,7.505c1.34,2.321,3.815,3.75,6.495,3.75
		c0.045-0.003,0.046,0,0.068,0c15.876,0,31.577,4.22,45.408,12.205c8.445,4.876,15.941,11.019,22.289,18.119
		C408.284,244.058,407.465,243.567,406.637,243.089z"/>
</g>
</svg>
