<?xml version="1.0" encoding="iso-8859-1"?>
<svg xmlns="http://www.w3.org/2000/svg" xmlns:xlink="http://www.w3.org/1999/xlink" version="1.1" id="Capa_1" x="0px" y="0px" viewBox="0 0 512 512" style="enable-background:new 0 0 512 512;" xml:space="preserve" width="512" height="512">
<g>
	<path style="fill:#5C5568;" d="M396.848,118.346l-18.844-18.047c-25.929-24.832-60.556-38.709-96.591-38.709h-50.835    c-36.034,0-70.662,13.877-96.591,38.709l-18.844,18.047l-43.1-44.317l36.879-35.32C134.851,13.878,169.479,0,205.514,0h100.964    c36.034,0,70.662,13.878,96.591,38.71l36.879,35.32L396.848,118.346z"/>
	<path style="fill:#6B6477;" d="M149.1,511.168l299.295-406.727c5.518-7.499,4.615-17.911-2.113-24.354l-39.217-37.559    c0,0,3.171,12.676-12.119,32.371C383.922,89.1,99.072,474.834,99.072,474.834c-0.912,1.226-0.209,2.978,1.302,3.243l30.269,5.304    c0.641,0.112,1.191,0.518,1.486,1.097l13.468,26.398C146.292,512.237,148.186,512.395,149.1,511.168z"/>
	<path style="fill:#837A91;" d="M362.9,511.168L63.605,104.441c-5.518-7.499-4.615-17.911,2.113-24.354l39.217-37.559    c0,0-3.171,12.676,12.119,32.371c11.024,14.2,295.874,399.935,295.874,399.935c0.912,1.226,0.209,2.978-1.302,3.243l-30.269,5.304    c-0.641,0.112-1.191,0.518-1.486,1.097l-13.468,26.398C365.708,512.237,363.814,512.395,362.9,511.168z"/>
</g>
</svg>
