<svg id="regular" enable-background="new 0 0 24 24" height="512" viewBox="0 0 24 24" width="512" xmlns="http://www.w3.org/2000/svg"><g><path d="m5.5 17.5c-1.654 0-3-1.346-3-3s1.346-3 3-3 3 1.346 3 3-1.346 3-3 3zm0-4.5c-.827 0-1.5.673-1.5 1.5s.673 1.5 1.5 1.5 1.5-.673 1.5-1.5-.673-1.5-1.5-1.5z"/></g><g><path d="m10.25 24c-.414 0-.75-.336-.75-.75v-1.5c0-.689-.561-1.25-1.25-1.25h-5.5c-.689 0-1.25.561-1.25 1.25v1.5c0 .414-.336.75-.75.75s-.75-.336-.75-.75v-1.5c0-1.517 1.233-2.75 2.75-2.75h5.5c1.517 0 2.75 1.233 2.75 2.75v1.5c0 .414-.336.75-.75.75z"/></g><g><path d="m18.5 17.5c-1.654 0-3-1.346-3-3s1.346-3 3-3 3 1.346 3 3-1.346 3-3 3zm0-4.5c-.827 0-1.5.673-1.5 1.5s.673 1.5 1.5 1.5 1.5-.673 1.5-1.5-.673-1.5-1.5-1.5z"/></g><g><path d="m23.25 24c-.414 0-.75-.336-.75-.75v-1.5c0-.689-.561-1.25-1.25-1.25h-5.5c-.689 0-1.25.561-1.25 1.25v1.5c0 .414-.336.75-.75.75s-.75-.336-.75-.75v-1.5c0-1.517 1.233-2.75 2.75-2.75h5.5c1.517 0 2.75 1.233 2.75 2.75v1.5c0 .414-.336.75-.75.75z"/></g><g><path d="m10.75 14c-.087 0-.174-.015-.259-.046-.339-.125-.54-.472-.481-.827l.854-5.127h-2.114c-.279 0-.535-.155-.664-.402-.13-.247-.111-.545.048-.774l4.5-6.5c.202-.293.584-.402.909-.264.327.139.513.489.442.838l-.82 4.102h2.085c.271 0 .52.146.652.381.134.234.13.523-.009.755l-4.5 7.5c-.139.231-.386.364-.643.364zm-.568-7.5h1.568c.221 0 .43.097.572.266.143.168.204.391.168.607l-.35 2.104 1.786-2.977h-1.676c-.225 0-.438-.101-.58-.274s-.199-.402-.155-.623l.289-1.446z"/></g></svg>