<svg id="Layer_1" enable-background="new 0 0 512 512" height="512" viewBox="0 0 512 512" width="512" xmlns="http://www.w3.org/2000/svg"><g><path d="m474.396 181.951-48.65 13.036c-8.002 2.144-12.75 10.369-10.606 18.371 2.219 8.281 10.652 12.676 18.371 10.606l48.65-13.036.347 1.296c2.219 8.281 10.652 12.676 18.371 10.606 8.002-2.144 12.75-10.369 10.606-18.371l-8.459-31.569c-2.145-8.002-10.365-12.752-18.371-10.606-8.002 2.144-12.75 10.369-10.606 18.371z" fill="#821eb4"/><path d="m500.879 289.165c-7.72-2.07-16.152 2.326-18.371 10.606l-.347 1.296-48.65-13.036c-7.72-2.07-16.152 2.326-18.371 10.606-2.144 8.002 2.604 16.227 10.606 18.371l48.65 13.036-.347 1.296c-2.144 8.002 2.604 16.227 10.606 18.371 8.006 2.146 16.227-2.604 18.371-10.606l8.459-31.569c2.144-8.002-2.604-16.227-10.606-18.371z" fill="#821eb4"/><path d="m11.121 222.831c7.72 2.07 16.152-2.326 18.371-10.606l.347-1.296 48.65 13.036c7.72 2.07 16.152-2.326 18.371-10.606 2.144-8.002-2.604-16.227-10.606-18.371l-48.65-13.036.347-1.296c2.144-8.002-2.604-16.227-10.606-18.371-8.006-2.146-16.227 2.604-18.371 10.606l-8.459 31.569c-2.144 8.002 2.604 16.227 10.606 18.371z" fill="#b450c8"/><g><path d="m339.106 8.974-31.569-8.459c-8.003-2.145-16.228 2.605-18.371 10.606-2.144 8.002 2.604 16.227 10.606 18.371l1.296.347-13.036 48.65c-2.144 8.002 2.604 16.227 10.606 18.371 8.314 2.228 16.314-2.928 18.371-10.606l13.036-48.65 1.296.347c8.314 2.228 16.314-2.928 18.371-10.606 2.144-8.002-2.604-16.227-10.606-18.371z" fill="#821eb4"/><path d="m393.711 139.502 35.614-35.614.949.949c5.856 5.857 15.355 5.859 21.213 0 5.858-5.858 5.858-15.355 0-21.213l-23.11-23.11c-5.857-5.858-15.355-5.858-21.213 0s-5.858 15.355 0 21.213l.949.949-35.614 35.614c-5.858 5.858-5.858 15.355 0 21.213 5.855 5.856 15.354 5.859 21.212-.001z" fill="#821eb4"/><g fill="#b450c8"><path d="m210.932 29.84 1.296-.347c8.002-2.144 12.75-10.369 10.606-18.371-2.143-8.002-10.368-12.752-18.37-10.607l-31.569 8.459c-8.002 2.144-12.75 10.369-10.606 18.371 2.057 7.679 10.057 12.835 18.371 10.606l1.296-.347 13.036 48.65c2.057 7.679 10.057 12.835 18.371 10.606 8.002-2.144 12.75-10.369 10.606-18.371z"/><path d="m103.888 82.676.949-.949c5.858-5.858 5.858-15.355 0-21.213-5.857-5.858-15.355-5.858-21.213 0l-23.11 23.11c-5.858 5.858-5.858 15.355 0 21.213 5.858 5.859 15.357 5.857 21.213 0l.949-.949 35.614 35.614c5.858 5.859 15.357 5.857 21.213 0 5.858-5.858 5.858-15.355 0-21.213z"/></g></g><path d="m37.604 330.045 48.65-13.036c8.002-2.144 12.75-10.369 10.606-18.371-2.219-8.281-10.652-12.676-18.371-10.606l-48.65 13.036-.347-1.296c-2.219-8.281-10.652-12.676-18.371-10.606-8.002 2.144-12.75 10.369-10.606 18.371l8.459 31.569c2.145 8.002 10.365 12.752 18.371 10.606 8.002-2.144 12.75-10.369 10.606-18.371z" fill="#b450c8"/><g><path d="m331.341 474.048-1.296.347-13.036-48.65c-2.057-7.679-10.057-12.835-18.371-10.606-8.002 2.144-12.75 10.369-10.606 18.371l13.036 48.65-1.296.347c-8.002 2.144-12.75 10.369-10.606 18.371 2.144 8.001 10.368 12.751 18.371 10.606l31.569-8.459c8.002-2.144 12.75-10.369 10.606-18.371-2.057-7.678-10.057-12.834-18.371-10.606z" fill="#821eb4"/><path d="m430.273 407.163-.949.949-35.614-35.614c-5.858-5.859-15.357-5.857-21.213 0-5.858 5.858-5.858 15.355 0 21.213l35.614 35.614-.949.949c-5.858 5.858-5.858 15.355 0 21.213 5.857 5.858 15.355 5.858 21.213 0l23.11-23.11c5.858-5.858 5.858-15.355 0-21.213-5.857-5.861-15.356-5.858-21.212-.001z" fill="#821eb4"/><g fill="#b450c8"><path d="m213.361 415.139c-8.314-2.228-16.314 2.928-18.371 10.606l-13.036 48.65-1.296-.347c-8.314-2.228-16.314 2.928-18.371 10.606-2.144 8.002 2.604 16.227 10.606 18.371l31.569 8.459c8.003 2.145 16.228-2.605 18.371-10.606 2.144-8.002-2.604-16.227-10.606-18.371l-1.296-.347 13.036-48.65c2.145-8.002-2.604-16.227-10.606-18.371z"/><path d="m118.289 372.498-35.614 35.614-.949-.949c-5.856-5.857-15.355-5.859-21.213 0-5.858 5.858-5.858 15.355 0 21.213l23.11 23.11c5.857 5.858 15.355 5.858 21.213 0s5.858-15.355 0-21.213l-.949-.949 35.614-35.614c5.858-5.858 5.858-15.355 0-21.213-5.855-5.856-15.354-5.859-21.212.001z"/></g></g><circle cx="256" cy="256" fill="#dff473" r="194.757"/><path d="m256 450.757v-389.514c107.389 0 194.757 87.368 194.757 194.757s-87.368 194.757-194.757 194.757z" fill="#8ee26b"/><g clip-rule="evenodd" fill-rule="evenodd"><circle cx="256" cy="143.533" fill="#8ee26b" r="15"/><circle cx="256" cy="368.467" fill="#8ee26b" r="15"/><circle cx="223.867" cy="288.133" fill="#8ee26b" r="15"/><circle cx="288.133" cy="288.133" fill="#00a08c" r="15"/><circle cx="288.133" cy="223.867" fill="#00a08c" r="15"/><circle cx="223.867" cy="223.867" fill="#8ee26b" r="15"/><circle cx="368.467" cy="256" fill="#00a08c" r="15"/><circle cx="143.533" cy="256" fill="#8ee26b" r="15"/><circle cx="335.526" cy="176.478" fill="#00a08c" r="15"/><circle cx="176.474" cy="335.53" fill="#8ee26b" r="15"/><circle cx="335.526" cy="335.53" fill="#00a08c" r="15"/><circle cx="176.474" cy="176.478" fill="#8ee26b" r="15"/></g><path d="m271 368.467c0-8.28-6.721-15-15-15v30c8.279 0 15-6.72 15-15z" fill="#00a08c"/><path d="m271 143.533c0-8.28-6.721-15-15-15v30c8.279 0 15-6.72 15-15z" fill="#00a08c"/></g></svg>